<svg version="1.1" id="Layer_1" xmlns="http://www.w3.org/2000/svg" xmlns:xlink="http://www.w3.org/1999/xlink" x="0px" y="0px"
	 width="100%" viewBox="0 0 320 592" enable-background="new 0 0 320 592" xml:space="preserve">
<path fill="#000000" opacity="1.000000" stroke="none" 
	d="
M321.000000,189.531342 
	C311.156128,204.879349 300.127106,218.836716 287.021790,230.944473 
	C276.432526,240.727676 265.701233,250.369354 254.744980,259.769470 
	C239.771866,272.615967 224.187057,284.684113 208.961594,297.204010 
	C200.254913,304.363495 191.263672,311.172882 183.067322,318.964508 
	C165.681656,335.491699 155.887665,355.999603 151.505844,379.210724 
	C148.291016,396.240204 147.569550,413.566925 148.532516,430.817474 
	C149.209930,442.952209 150.077652,455.017395 148.300110,467.074036 
	C147.224243,474.371307 144.406479,480.628784 137.318542,484.437073 
	C133.317627,486.586731 131.384750,491.447784 126.867912,493.302948 
	C116.136856,497.710388 106.296509,495.494598 97.233887,489.143402 
	C83.493301,479.513763 77.012962,465.339478 73.766029,449.490479 
	C69.907333,430.655426 69.985840,411.645050 71.498016,392.530762 
	C73.337502,369.278961 78.972824,347.051178 88.761612,325.962097 
	C94.075012,314.514801 100.877678,303.879059 109.449524,294.469147 
	C126.357315,275.908234 147.247299,262.711792 168.615814,250.083511 
	C188.763718,238.176575 209.508743,227.226944 228.192581,212.944931 
	C244.952911,200.133255 255.324539,184.206787 256.922394,162.409348 
	C258.219849,144.709686 255.549835,128.384918 246.213669,113.380035 
	C238.986771,101.765121 228.887390,93.034340 217.104492,86.122879 
	C199.846817,76.000092 181.182663,69.510941 161.550888,66.806190 
	C141.056931,63.982643 121.743309,68.869453 103.672417,79.233459 
	C89.514313,87.353401 78.725899,98.819656 68.621300,111.271057 
	C61.125904,120.507248 53.367104,129.596420 43.947868,136.973572 
	C37.904350,141.706848 31.183807,139.460587 24.961367,137.312653 
	C13.696485,133.424103 5.752050,125.764107 1.164389,114.299202 
	C1.000000,106.979050 1.000000,99.958107 1.289120,92.295685 
	C3.641838,87.348808 5.520308,82.942451 7.803107,78.756599 
	C15.197316,65.198212 25.669113,54.176975 36.918743,43.797604 
	C48.492718,33.118969 61.701988,24.789745 75.830070,18.177921 
	C91.164230,11.001656 107.531815,6.669075 124.145119,3.324044 
	C126.433762,2.863235 129.298569,3.433569 131.000000,1.000000 
	C147.354233,1.000000 163.708450,1.000000 180.756805,1.285027 
	C188.028656,3.074997 194.672745,4.338972 201.171936,6.128998 
	C222.706253,12.060032 243.406509,20.027699 262.322113,32.133499 
	C278.380219,42.410557 292.430389,54.910187 304.262939,69.910851 
	C310.891144,78.313713 315.700012,87.798958 321.000000,97.000000 
	C321.000000,127.687561 321.000000,158.375122 321.000000,189.531342 
M263.726868,177.932190 
	C261.244781,190.252045 254.968475,200.481888 246.312454,209.370575 
	C231.110062,224.981628 212.214371,235.363510 193.750519,246.339783 
	C175.000137,257.486420 155.931732,268.082886 138.235062,280.959747 
	C112.662910,299.567108 96.513672,324.427643 87.905014,354.563416 
	C80.607567,380.109100 77.760590,406.096313 80.417664,432.555267 
	C81.649826,444.825043 83.642944,457.032623 90.248795,467.832336 
	C95.321594,476.125763 101.759003,482.950958 111.496689,485.757019 
	C119.702202,488.121582 126.482910,484.748627 129.372330,476.646576 
	C130.996445,472.092407 131.742981,467.307617 131.640945,462.437042 
	C131.139297,438.489685 129.358185,414.535858 132.644180,390.628418 
	C136.825790,360.204834 149.599701,334.364319 173.388138,314.559601 
	C197.331039,294.626282 221.708893,275.213776 245.573990,255.189102 
	C264.860962,239.005798 283.416626,222.043793 298.012299,201.211960 
	C310.506165,183.379929 315.967773,163.692902 313.459961,142.178268 
	C309.903473,111.666313 296.201202,85.711899 273.852692,65.139267 
	C233.831177,28.297930 186.366714,10.368835 131.641830,13.291742 
	C104.117943,14.761819 79.360046,24.559595 56.957424,40.151516 
	C38.270683,53.157234 22.445457,69.013725 12.733879,90.076797 
	C4.906846,107.052544 10.418664,121.039429 27.595167,128.305115 
	C35.907616,131.821289 36.684666,131.627731 42.378056,124.710678 
	C54.876842,109.525558 67.334969,94.326050 82.969177,82.099403 
	C104.267380,65.443260 128.036209,54.980103 155.360306,57.051018 
	C183.351349,59.172482 209.385818,68.374268 232.297485,85.031708 
	C248.482346,96.798584 259.327515,112.470879 264.026947,132.075302 
	C267.620636,147.066879 266.993469,162.109329 263.726868,177.932190 
z"/>
<path fill="#000000" opacity="1.000000" stroke="none" 
	d="
M99.468658,593.000000 
	C94.695801,588.908936 89.544640,585.730957 85.947418,580.877258 
	C74.475784,565.398621 76.558762,541.622070 92.914490,528.682434 
	C100.575623,522.621460 109.071098,520.898193 118.174164,519.550720 
	C127.374367,518.188965 135.940109,519.501831 144.192734,523.592590 
	C163.261520,533.044922 168.562515,559.560913 155.118835,576.122864 
	C149.943665,582.498474 145.033752,588.853760 137.236160,592.763245 
	C124.645775,593.000000 112.291542,593.000000 99.468658,593.000000 
M91.841637,572.553040 
	C95.084831,578.014282 99.697624,581.919373 105.368088,584.712402 
	C124.298561,594.036743 148.851746,580.410400 149.649902,560.101990 
	C150.152756,547.307861 143.110931,536.354431 131.209381,531.418091 
	C118.849274,526.291565 104.752838,529.191223 95.851524,538.691284 
	C87.124733,548.005188 85.569786,559.805603 91.841637,572.553040 
z"/>
</svg>