<svg id="Layer_1" data-name="Layer 1" xmlns="http://www.w3.org/2000/svg" viewBox="0 0 359.01 101.58"><defs><style>.cls-1{fill:#fff;}</style></defs><path class="cls-1" d="M127.09,12.27V24.09h24.45V36H127.09V60.54H113.76V.53h38.92V12.27Z" transform="translate(0 0)"/><path class="cls-1" d="M173.6,13.15h-13V.53h13Zm0,47.39h-13v-42h13Z" transform="translate(0 0)"/><path class="cls-1" d="M196.9,18.53v5.74c1.14-3.18,5.91-6.71,11.82-6.71a8.4,8.4,0,0,1,1.5.09V30a18.51,18.51,0,0,0-4.14-.52c-5,0-7.42,2.38-8.39,5.91a21.75,21.75,0,0,0-.62,5.65v19.5H184.19v-42Z" transform="translate(0 0)"/><path class="cls-1" d="M256.73,51.63c-2.47,3.53-8.56,10-20.12,10-12.35,0-21.8-8.12-21.8-22.24,0-13.15,9-21.89,21.54-21.89,13.85,0,20.91,10,20.91,22.77a25.2,25.2,0,0,1-.09,2.65H227.26c.44,4.59,3.79,8.56,10.15,8.56a11.79,11.79,0,0,0,10.41-5.82Zm-29.47-17h17.56c-.27-4.85-3.36-8.2-8.56-8.2A8.78,8.78,0,0,0,227.26,34.59Z" transform="translate(0 0)"/><path class="cls-1" d="M290.8,27.62h-9.53V60.54H268.38V27.62h-7V18.53h7V13.94c0-4.41,1-7.5,2.56-9.7C273.32,1,277.82,0,283,0a55.47,55.47,0,0,1,7.77.53v9.71a33.89,33.89,0,0,0-3.53-.18c-2.21,0-3.71.27-4.77,1.15-.79.7-1.23,1.5-1.23,3.79v3.53h9.53ZM310,60.54H297.06V.53H310Z" transform="translate(0 0)"/><path class="cls-1" d="M359,18.53,344.54,64c-1.41,4.41-2.65,7.33-4.41,9.18-2.12,2.29-5.12,3.62-12.44,3.62a74.28,74.28,0,0,1-7.86-.36v-10c1.77.09,2.65.09,3.89.09,3.08,0,6.79.09,6.79-3.53,0-1.59-.71-3.09-1.32-5.12l-12.8-39.36h13.5l6,22.42c1.06,4,2.12,9,2.12,9h.09s1-5.21,1.94-9l5.74-22.42Z" transform="translate(0 0)"/><path class="cls-1" d="M117.28,93.68h-3.52V66.54h3.52Z" transform="translate(0 0)"/><path class="cls-1" d="M138.79,93.68h-3.32V82.62c0-4.11-1.51-5.46-4.31-5.46-3.19,0-5,2.55-5,5.54v11h-3.32v-19h3.32v2.84a6.63,6.63,0,0,1,6.1-3.28c2.48,0,4.31.84,5.35,2.44a9.17,9.17,0,0,1,1.2,5.11Z" transform="translate(0 0)"/><path class="cls-1" d="M141.5,74.68h3.67V67.82l3.31-.72v7.58h4.19V77.2h-4.19V89a3.59,3.59,0,0,0,.28,1.8c.24.43.68.63,1.72.63a11.73,11.73,0,0,0,2.19-.24v2.6a13.58,13.58,0,0,1-3.31.4c-1.79,0-3.35-.4-4-2a5.46,5.46,0,0,1-.24-1.83V77.2H141.5Z" transform="translate(0 0)"/><path class="cls-1" d="M172.47,89.77a9.67,9.67,0,0,1-8.38,4.39c-5.43,0-9.06-3.71-9.06-10.06,0-5.83,3.79-9.86,9-9.86,5.71,0,8.54,4.31,8.54,10v.72H158.38c.08,3.11,1.84,6.34,6,6.34a6.42,6.42,0,0,0,5.66-3.23Zm-14-7.47h10.66c-.28-3.35-2.12-5.38-5.11-5.38S158.86,79,158.5,82.3Z" transform="translate(0 0)"/><path class="cls-1" d="M179.37,94.48c.36,2.23,1.56,4.39,5.23,4.39,4.59,0,5.55-2.16,5.55-6.55,0-.72,0-1.91,0-1.91a6.58,6.58,0,0,1-6.11,3.31c-5,0-8.42-3.59-8.42-9.66s3.59-9.82,8.42-9.82a7,7,0,0,1,6.07,3.24v-2.8h3.31V92.52a12.86,12.86,0,0,1-.84,5.19c-1.24,2.83-3.87,3.87-8.06,3.87-5.87,0-7.82-3.11-8.3-6.58ZM184.64,77c-3.39,0-5.59,2.71-5.59,7s2,6.87,5.51,6.87,5.91-2.08,5.91-6.83S188,77,184.64,77Z" transform="translate(0 0)"/><path class="cls-1" d="M208.82,77.48a6.73,6.73,0,0,0-1.23-.12c-3.6,0-5.59,3.19-5.59,6.38v9.94h-3.31v-19H202v3.59c.44-2.19,3.11-4.07,5.75-4.07a4.43,4.43,0,0,1,1.07.12Z" transform="translate(0 0)"/><path class="cls-1" d="M228.46,94a9.87,9.87,0,0,1-1.88.16c-2.31,0-3.07-1-3.19-2.56h0c-.6,1-2.27,2.64-5.87,2.64-3.87,0-6.46-2.08-6.46-5.75A4.82,4.82,0,0,1,213.45,84,17.06,17.06,0,0,1,219,82.38l2.59-.43c1.2-.2,1.6-.36,1.6-1.16v-.4c0-2-.64-3.43-4-3.43s-4.47,1.75-4.47,4l-3.19-.36c-.08-4.27,3.55-6.35,7.82-6.35s7.06,1.24,7.06,6v9.66c0,1.31.48,1.71,1.64,1.71h.44ZM223.19,84a12.28,12.28,0,0,1-2.19.56l-1.84.4a10.34,10.34,0,0,0-3.71,1.24,2.34,2.34,0,0,0-1,2.07c0,2.16,1.68,3.31,4,3.31s4.71-1.15,4.71-4.11Z" transform="translate(0 0)"/><path class="cls-1" d="M229.81,74.68h3.68V67.82l3.31-.72v7.58H241V77.2H236.8V89a3.59,3.59,0,0,0,.28,1.8c.24.43.68.63,1.71.63a11.94,11.94,0,0,0,2.2-.24v2.6a13.7,13.7,0,0,1-3.31.4c-1.8,0-3.36-.4-4-2a5.78,5.78,0,0,1-.23-1.83V77.2h-3.68Z" transform="translate(0 0)"/><path class="cls-1" d="M247.93,70.77h-3.31V66.54h3.31Zm0,22.91h-3.31v-19h3.31Z" transform="translate(0 0)"/><path class="cls-1" d="M290.39,93.68h-3.31V82.62c0-4.11-1.52-5.46-4.31-5.46-3.19,0-5,2.55-5,5.54v11h-3.31v-19h3.31v2.84a6.65,6.65,0,0,1,6.11-3.28c2.47,0,4.31.84,5.35,2.44a9.26,9.26,0,0,1,1.19,5.11Z" transform="translate(0 0)"/><path class="cls-1" d="M307,79.39A7,7,0,0,0,301.77,77c-2.12,0-3.76.91-3.76,2.59s1.44,2.28,4.27,2.87l2.2.44c3,.64,5.47,1.92,5.47,5.23,0,3.87-3.4,6-7.94,6a10.51,10.51,0,0,1-8.15-3.75L296,88.17a7.78,7.78,0,0,0,6.18,3.23c2.6,0,4.35-1.07,4.35-3s-1.39-2.19-3.31-2.55l-2.59-.52c-3.27-.64-6-2-6-5.31,0-4.07,3.75-5.79,7.27-5.79a9.58,9.58,0,0,1,7.26,3Z" transform="translate(0 0)"/><rect class="cls-1" x="259.9" y="74.24" width="2.55" height="11.73" rx="0.97"/><path class="cls-1" d="M265.08,77.28l-.06.11a1.23,1.23,0,0,0,.32,1.53,7.13,7.13,0,0,1,2.15,8.87,6.16,6.16,0,0,1-3.09,3.09,7.07,7.07,0,0,1-10.24-6.3A7,7,0,0,1,257,79a1.23,1.23,0,0,0,.38-1.56l-.06-.1a1.2,1.2,0,0,0-1.79-.42,9.55,9.55,0,0,0-3.89,8.06,9.58,9.58,0,1,0,15.25-8.07A1.21,1.21,0,0,0,265.08,77.28Z" transform="translate(0 0)"/><path class="cls-1" d="M48.77,41.3a.46.46,0,0,0,.69-.55C46.54,34.08,35,8.54,26.6,2.12,16.91-5.29,7.35,8.46,10.8,16.93,14.14,25.13,34,30.36,48.77,41.3Z" transform="translate(0 0)"/><path class="cls-1" d="M46.07,44.3a.45.45,0,0,0,.24-.86C39.07,40.12,19.73,31.38,7.79,27.09c-14.92-5.36-4.95,9.83,1.48,12.56C15,42.06,36.47,43.18,46.07,44.3Z" transform="translate(0 0)"/><path class="cls-1" d="M52.33,44.86a.45.45,0,0,1,.54-.69C59.54,47.09,85.08,58.62,91.51,67c7.41,9.69-6.35,19.25-14.81,15.8C68.49,79.49,63.27,59.63,52.33,44.86Z" transform="translate(0 0)"/><path class="cls-1" d="M49.32,47.56a.46.46,0,0,1,.87-.24c3.32,7.24,12.06,26.58,16.35,38.52,5.35,14.92-9.84,5-12.57-1.49C51.56,78.67,50.45,57.16,49.32,47.56Z" transform="translate(0 0)"/><path class="cls-1" d="M51.12,28a2.62,2.62,0,0,0,.93,4.34c1.61.57,3.18,2.06,5.2,4.08s3.51,3.58,4.08,5.2a2.62,2.62,0,0,0,4.34.93c2.89-3,5.48-8-.56-14S54.08,25.07,51.12,28Z" transform="translate(0 0)"/><path class="cls-1" d="M32.38,77.85C33.62,76.94,34.9,76,36.14,75A2.11,2.11,0,0,0,37,72.52a45,45,0,0,0-6.87-9,45,45,0,0,0-9-6.86,2.09,2.09,0,0,0-2.51.86c-1,1.24-1.91,2.52-2.82,3.76-.64.87-.61,1.89.07,2.3a44.45,44.45,0,0,1,8,6.25,44,44,0,0,1,6.24,8C30.49,78.45,31.51,78.48,32.38,77.85Z" transform="translate(0 0)"/><path class="cls-1" d="M46.07,64.53A40.19,40.19,0,0,0,39,54.66a40.35,40.35,0,0,0-9.86-7.1c-1.81-1-3.33.83-3.33.83s-1,1.18-2.41,3c-.72.9-.71,2,0,2.42a45.15,45.15,0,0,1,9.37,7.06,45.15,45.15,0,0,1,7.06,9.37c.42.74,1.52.75,2.42,0,1.82-1.45,3-2.41,3-2.41S47.05,66.34,46.07,64.53Z" transform="translate(0 0)"/><path class="cls-1" d="M21.21,72.42a43.79,43.79,0,0,0-7.12-5.7c-.79-.51-2.13,0-2.76,1.13a4.82,4.82,0,0,0-.9,2.37,17.45,17.45,0,0,0,4.48,8.5,17.49,17.49,0,0,0,8.5,4.48,4.77,4.77,0,0,0,2.37-.91c1.1-.62,1.64-2,1.12-2.76A44.07,44.07,0,0,0,21.21,72.42Z" transform="translate(0 0)"/><path class="cls-1" d="M69.42,29.89h0a.92.92,0,0,1,0-1.32,102.07,102.07,0,0,1,8.35-7.43,19.85,19.85,0,0,1-2.88-2.4,19.85,19.85,0,0,1-2.4-2.88,102.07,102.07,0,0,1-7.43,8.35.92.92,0,0,1-1.32,0h0a.94.94,0,0,1,0-1.32,90.37,90.37,0,0,0,7.7-8.83,11.58,11.58,0,0,1-1.06-3.24,6.39,6.39,0,0,1,1.42-5.5,3.11,3.11,0,0,1,4.6,0c1.66,1.66,0,5.23-2.71,9a16.67,16.67,0,0,0,2.54,3.15,16.67,16.67,0,0,0,3.15,2.54c3.74-2.67,7.31-4.37,9-2.71a3.11,3.11,0,0,1,0,4.6,6.39,6.39,0,0,1-5.5,1.42,11.58,11.58,0,0,1-3.24-1.06,90.37,90.37,0,0,0-8.83,7.7A.94.94,0,0,1,69.42,29.89ZM75.07,6.6a1.26,1.26,0,0,0-1.94,0,4.55,4.55,0,0,0-.9,3.89,9.14,9.14,0,0,0,.48,1.77C74.73,9.38,75.7,7.22,75.07,6.6Zm12,12c-.62-.63-2.78.34-5.7,2.36a8.56,8.56,0,0,0,1.76.48,4.57,4.57,0,0,0,3.9-.9A1.26,1.26,0,0,0,87,18.56Z" transform="translate(0 0)"/></svg>